<svg width="1080" height="720" xmlns="http://www.w3.org/2000/svg" xmlns:xlink="http://www.w3.org/1999/xlink" xml:space="preserve" overflow="hidden"><defs><clipPath id="clip0"><rect x="100" y="0" width="1080" height="720"/></clipPath></defs><g clip-path="url(#clip0)" transform="translate(-100 0)"><path d="M376.412 233.423C366.676 244.945 351.097 254.032 335.518 252.734 333.571 237.155 341.198 220.603 350.123 210.379 359.86 198.533 376.899 190.095 390.693 189.445 392.316 205.673 385.987 221.577 376.412 233.423M390.531 255.817C367.974 254.519 348.663 268.637 337.952 268.637 327.08 268.637 310.69 256.466 292.839 256.791 269.633 257.116 248.05 270.26 236.204 291.194 211.862 333.062 229.875 395.052 253.405 429.131 264.927 446.008 278.721 464.507 296.896 463.858 314.097 463.209 320.913 452.661 341.685 452.661 362.619 452.661 368.623 463.858 386.798 463.534 405.622 463.209 417.469 446.657 428.991 429.78 442.135 410.631 447.49 391.969 447.815 390.995 447.49 390.671 411.464 376.877 411.14 335.334 410.815 300.606 439.539 284.054 440.837 283.08 424.609 259.063 399.294 256.466 390.531 255.817M520.84 208.757 520.84 461.749 560.112 461.749 560.112 375.254 614.475 375.254C664.132 375.254 699.022 341.176 699.022 291.843 699.022 242.51 664.781 208.757 615.773 208.757ZM560.112 241.861 605.387 241.861C639.466 241.861 658.939 260.037 658.939 292.005 658.939 323.974 639.466 342.312 605.225 342.312L560.112 342.312ZM770.749 463.696C795.415 463.696 818.296 451.2 828.682 431.403L829.494 431.403 829.494 461.749 865.844 461.749 865.844 335.821C865.844 299.308 836.634 275.778 791.683 275.778 749.977 275.778 719.144 299.632 718.008 332.413L753.385 332.413C756.306 316.834 770.749 306.61 790.547 306.61 814.564 306.61 828.033 317.808 828.033 338.417L828.033 352.373 779.025 355.294C733.425 358.053 708.758 376.715 708.758 409.17 708.758 441.951 734.236 463.696 770.749 463.696ZM781.297 433.674C760.363 433.674 747.056 423.613 747.056 408.197 747.056 392.293 759.876 383.044 784.38 381.583L828.033 378.824 828.033 393.105C828.033 416.797 807.911 433.674 781.297 433.674ZM914.365 530.555C952.663 530.555 970.676 515.95 986.417 471.648L1055.39 278.212 1015.46 278.212 969.215 427.67 968.404 427.67 922.155 278.212 881.098 278.212 947.632 462.398 944.062 473.595C938.058 492.581 928.321 499.884 910.957 499.884 907.874 499.884 901.87 499.559 899.436 499.235L899.436 529.581C901.708 530.23 911.444 530.555 914.365 530.555Z" fill="#BFBFBF"/></g></svg>