<?xml version="1.0" standalone="no"?>
<!DOCTYPE svg PUBLIC "-//W3C//DTD SVG 20010904//EN"
 "http://www.w3.org/TR/2001/REC-SVG-20010904/DTD/svg10.dtd">
<svg version="1.0" xmlns="http://www.w3.org/2000/svg"
 width="960.000000pt" height="218.000000pt" viewBox="0 0 960.000000 218.000000"
 preserveAspectRatio="xMidYMid meet">

<g transform="translate(0.000000,218.000000) scale(0.100000,-0.100000)"
fill="#FA2829" stroke="none">
<path d="M6295 2164 c-271 -42 -480 -146 -651 -326 -346 -365 -393 -948 -109
-1373 99 -149 269 -293 432 -366 295 -132 682 -128 971 11 90 43 195 115 249
172 85 88 84 212 -3 295 -90 87 -194 84 -319 -11 -111 -85 -239 -132 -380
-139 -251 -13 -473 116 -580 338 -99 205 -99 439 0 640 53 108 111 176 202
239 215 147 485 139 731 -22 91 -60 151 -77 219 -62 113 26 174 102 174 221 1
100 -53 169 -190 246 -128 72 -244 108 -440 138 -122 18 -183 17 -306 -1z"/>
<path d="M8385 2170 c-22 -4 -74 -14 -115 -20 -166 -28 -359 -115 -497 -225
-279 -224 -427 -577 -392 -941 48 -515 410 -891 931 -968 123 -19 201 -20 318
-6 249 31 465 130 636 292 96 92 153 165 210 272 89 167 124 315 124 521 0
296 -94 534 -293 742 -171 178 -372 278 -650 323 -131 21 -204 23 -272 10z
m290 -450 c206 -63 373 -244 430 -465 22 -81 22 -250 1 -340 -69 -292 -314
-488 -611 -488 -113 0 -178 15 -284 65 -67 32 -101 56 -160 117 -132 132 -194
287 -194 481 0 324 194 576 498 646 82 19 231 12 320 -16z"/>
<path d="M2525 2161 c-16 -4 -47 -16 -68 -26 -83 -39 -95 -63 -412 -777 -528
-1191 -478 -1071 -473 -1144 7 -111 79 -182 194 -192 44 -4 64 1 110 23 71 35
88 62 184 288 l75 177 464 -3 465 -2 75 -176 c94 -217 114 -249 182 -283 114
-56 244 -14 298 97 44 91 47 82 -245 741 -146 331 -320 724 -387 874 -130 295
-160 342 -242 382 -48 23 -168 35 -220 21z m217 -889 c75 -180 140 -335 144
-344 6 -17 -12 -18 -285 -18 -160 0 -291 3 -291 7 0 14 284 683 290 683 3 0
67 -148 142 -328z"/>
<path d="M5047 2146 c-26 -7 -64 -27 -85 -43 -20 -16 -160 -206 -312 -423
-152 -216 -279 -393 -283 -392 -5 1 -123 167 -264 369 -140 202 -269 385 -285
405 -16 20 -54 49 -84 64 -47 23 -63 26 -122 22 -82 -6 -138 -37 -179 -100
-25 -36 -28 -51 -28 -117 0 -55 6 -86 19 -111 14 -27 529 -732 685 -939 l26
-34 5 -343 5 -342 30 -43 c98 -139 310 -128 387 20 l28 53 0 329 0 330 347
467 c191 257 356 485 367 506 40 80 30 195 -21 257 -51 60 -153 88 -236 65z"/>
<path d="M135 2131 c-61 -27 -111 -89 -125 -152 -8 -39 -10 -293 -8 -924 3
-869 3 -870 25 -910 76 -142 264 -167 372 -50 22 23 44 60 50 81 6 23 11 139
11 277 l0 237 239 0 c268 0 357 11 496 61 109 40 214 108 288 188 71 78 109
142 144 246 24 73 27 94 27 240 0 147 -2 166 -27 240 -84 250 -270 408 -551
466 -80 17 -139 19 -496 19 -370 0 -408 -2 -445 -19z m862 -418 c103 -41 162
-106 189 -206 19 -71 18 -114 -6 -189 -25 -83 -73 -139 -153 -178 -85 -42
-160 -51 -377 -48 l-185 3 -3 323 -2 324 242 -4 c218 -4 248 -6 295 -25z"/>
</g>
</svg>
